<svg height="32" viewBox="0 0 32 32" width="32" xmlns="http://www.w3.org/2000/svg"><path d="m29.3164 8.0513-18-6a1 1 0 0 0 -.9164.1487l-6.4 4.8v-5h-2v28h2v-19l6.4 4.8a1 1 0 0 0 .9165.1489l18-6a1 1 0 0 0 0-1.8974zm-19.3164 4.9487-5.3335-4 5.3335-4zm4-.0542-2 .667v-9.2256l2 .667zm4-1.333-2 .6665v-6.5586l2 .6665zm2-.667v-3.8916l5.8379 1.9458z"/><path d="m20 22a4 4 0 0 0 -8 0h2a2 2 0 1 1 2 2h-8v2h8a4.0045 4.0045 0 0 0 4-4z"/><path d="m26 22a4.0045 4.0045 0 0 0 -4 4h2a2 2 0 1 1 2 2h-14v2h14a4 4 0 0 0 0-8z"/><path d="m0 0h32v32h-32z" fill="none"/></svg>